<?xml version="1.0" standalone="no"?>
<!DOCTYPE svg PUBLIC "-//W3C//DTD SVG 20010904//EN"
 "http://www.w3.org/TR/2001/REC-SVG-20010904/DTD/svg10.dtd">
<svg version="1.0" xmlns="http://www.w3.org/2000/svg"
 width="300.000000pt" height="300.000000pt" viewBox="0 0 300.000000 300.000000"
 preserveAspectRatio="xMidYMid meet">
<metadata>
Created by potrace 1.11, written by Peter Selinger 2001-2013
</metadata>
<g transform="translate(0.000000,300.000000) scale(0.100000,-0.100000)"
fill="#000000" stroke="none">
<path d="M264 2133 c3 -922 3 -926 66 -1115 120 -358 379 -633 797 -846 132
-67 335 -152 364 -152 66 0 417 167 586 279 143 95 320 260 405 377 100 140
173 307 215 495 14 65 17 179 20 938 l4 864 -108 -99 c-59 -54 -122 -111 -139
-126 l-30 -28 -145 24 c-559 95 -1056 95 -1611 1 -134 -23 -144 -23 -163 -7
-57 48 -117 102 -181 164 -40 37 -74 68 -77 68 -4 0 -5 -377 -3 -837z m1673
372 c73 -8 137 -15 143 -15 6 0 8 -6 4 -12 -5 -9 -2 -8 9 1 10 8 20 11 23 8
19 -18 -333 -214 -518 -288 l-106 -42 -79 28 c-106 39 -359 167 -467 238 -48
32 -87 60 -84 62 2 2 69 11 148 20 292 34 629 34 927 0z m-1292 -221 c52 -36
97 -69 100 -75 4 -5 -5 -24 -19 -42 -56 -73 -72 -196 -39 -293 24 -70 110
-155 183 -179 117 -39 241 -12 324 71 37 36 86 123 86 152 0 15 6 15 29 2 12
-6 21 -26 25 -58 21 -157 121 -412 162 -412 17 0 88 143 117 235 13 44 30 113
38 153 17 97 38 111 63 41 25 -68 102 -150 168 -180 79 -34 184 -33 258 5 115
58 170 141 178 268 4 70 2 82 -27 140 -17 35 -36 71 -43 82 -9 12 -9 20 -2 22
16 7 169 117 172 126 33 76 26 -325 -7 -453 -49 -190 -148 -268 -441 -345
-191 -50 -342 -122 -440 -210 l-41 -37 -37 35 c-99 96 -220 150 -522 234 -201
55 -302 140 -352 294 -17 54 -22 100 -27 278 -3 116 -5 212 -3 212 2 0 46 -30
97 -66z m229 -152 l34 -19 -28 -26 c-103 -97 -15 -263 126 -240 49 8 102 62
110 112 l6 39 31 -13 c40 -17 43 -27 22 -81 -30 -78 -115 -134 -205 -134 -40
0 -127 38 -152 66 -49 55 -71 159 -47 221 10 28 56 93 65 93 2 0 19 -8 38 -18z
m1297 -4 c33 -38 49 -84 49 -143 0 -194 -228 -285 -367 -147 -25 26 -70 120
-60 127 6 6 67 35 72 35 3 0 5 -11 5 -25 0 -57 42 -106 106 -125 36 -11 47
-10 87 8 98 44 118 164 38 236 l-21 19 27 18 c37 23 41 23 64 -3z m-1469 -571
c60 -36 124 -58 356 -127 195 -58 328 -140 403 -248 l37 -52 22 37 c17 30 24
34 32 22 8 -11 9 -10 4 4 -7 22 52 90 71 82 8 -2 12 -1 9 4 -8 13 21 34 35 25
8 -4 9 -3 5 4 -16 26 266 136 398 156 6 1 16 4 21 7 6 4 28 12 50 19 22 7 66
26 98 41 33 16 63 26 68 23 5 -3 8 0 7 8 -2 7 5 12 14 12 10 -1 16 1 15 5 -1
4 18 30 43 57 l45 51 -6 -221 c-7 -230 -15 -281 -62 -407 -75 -197 -224 -372
-442 -518 -111 -75 -276 -161 -381 -200 l-57 -22 -56 22 c-31 12 -100 44 -153
71 -389 193 -614 437 -698 758 -19 72 -23 120 -27 303 l-5 219 45 -49 c25 -27
74 -65 109 -86z"/>
<path d="M1501 2464 c0 -11 3 -14 6 -6 3 7 2 16 -1 19 -3 4 -6 -2 -5 -13z"/>
<path d="M1990 2470 c13 -9 13 -10 0 -10 -12 0 -13 -2 -1 -9 11 -7 10 -11 -5
-20 -11 -6 -14 -11 -7 -11 6 0 15 5 18 10 4 6 12 7 18 3 7 -4 6 0 -2 10 -11
15 -11 17 2 17 8 0 18 -6 20 -12 4 -10 6 -10 6 0 1 7 -11 17 -25 22 -32 13
-43 13 -24 0z"/>
<path d="M1928 2463 c7 -3 16 -2 19 1 4 3 -2 6 -13 5 -11 0 -14 -3 -6 -6z"/>
<path d="M1936 2415 c10 -8 23 -15 28 -15 6 0 1 7 -10 15 -10 8 -23 15 -28 15
-6 0 -1 -7 10 -15z"/>
<path d="M1770 2330 c-18 -12 -2 -12 25 0 13 6 15 9 5 9 -8 0 -22 -4 -30 -9z"/>
<path d="M1785 2310 c-3 -6 1 -7 9 -4 18 7 21 14 7 14 -6 0 -13 -4 -16 -10z"/>
<path d="M1630 2270 c8 -5 20 -10 25 -10 6 0 3 5 -5 10 -8 5 -19 10 -25 10 -5
0 -3 -5 5 -10z"/>
<path d="M1500 2190 c0 -5 5 -10 11 -10 5 0 7 5 4 10 -3 6 -8 10 -11 10 -2 0
-4 -4 -4 -10z"/>
<path d="M2414 1470 c0 -52 1 -74 3 -47 2 26 2 68 0 95 -2 26 -3 4 -3 -48z"/>
<path d="M2220 1505 c-14 -8 -20 -14 -15 -14 6 0 21 6 35 14 14 8 21 14 15 14
-5 0 -21 -6 -35 -14z"/>
<path d="M2285 1500 c27 -12 43 -12 25 0 -8 5 -22 9 -30 9 -10 0 -8 -3 5 -9z"/>
<path d="M2120 1460 c0 -5 5 -10 10 -10 6 0 10 5 10 10 0 6 -4 10 -10 10 -5 0
-10 -4 -10 -10z"/>
<path d="M1960 1420 c-21 -7 -21 -8 -5 -9 11 0 27 4 35 9 18 11 5 11 -30 0z"/>
<path d="M1810 1369 c0 -5 5 -7 10 -4 6 3 10 8 10 11 0 2 -4 4 -10 4 -5 0 -10
-5 -10 -11z"/>
<path d="M1760 1340 c8 -5 22 -9 30 -9 10 0 8 3 -5 9 -27 12 -43 12 -25 0z"/>
<path d="M1810 1346 c0 -2 7 -7 16 -10 8 -3 12 -2 9 4 -6 10 -25 14 -25 6z"/>
<path d="M1715 1330 c-3 -6 1 -7 9 -4 18 7 21 14 7 14 -6 0 -13 -4 -16 -10z"/>
<path d="M1663 1255 c0 -8 4 -12 9 -9 5 3 6 10 3 15 -9 13 -12 11 -12 -6z"/>
<path d="M1620 1246 c7 -7 13 -7 20 0 6 6 3 10 -10 10 -13 0 -16 -4 -10 -10z"/>
<path d="M1580 1181 c0 -6 4 -13 10 -16 6 -3 7 1 4 9 -7 18 -14 21 -14 7z"/>
<path d="M2352 1080 c-7 -11 -12 -25 -12 -32 0 -7 7 0 15 16 18 33 15 45 -3
16z"/>
<path d="M2295 971 c-3 -6 -11 -9 -16 -6 -11 7 -11 -3 1 -30 8 -19 9 -19 9 2
1 12 7 23 14 26 6 2 9 7 6 11 -4 4 -10 2 -14 -3z"/>
<path d="M2166 832 c-3 -5 1 -9 9 -9 8 0 12 4 9 9 -3 4 -7 8 -9 8 -2 0 -6 -4
-9 -8z"/>
<path d="M2200 810 c-12 -16 -19 -30 -16 -30 2 0 14 14 26 30 12 17 19 30 16
30 -2 0 -14 -13 -26 -30z"/>
<path d="M2165 799 c-4 -6 -5 -12 -2 -15 2 -3 7 2 10 11 7 17 1 20 -8 4z"/>
<path d="M2104 748 c9 -5 23 -5 32 0 12 6 7 9 -16 9 -23 0 -28 -3 -16 -9z"/>
<path d="M2095 710 c-3 -6 1 -7 9 -4 18 7 21 14 7 14 -6 0 -13 -4 -16 -10z"/>
<path d="M2069 673 c-13 -16 -12 -17 4 -4 16 13 21 21 13 21 -2 0 -10 -8 -17
-17z"/>
<path d="M2009 677 c0 -1 -2 -10 -4 -20 -3 -15 -1 -16 13 -5 9 7 18 13 20 14
2 1 -4 4 -13 7 -8 4 -15 5 -16 4z"/>
<path d="M2019 633 c-13 -15 -12 -15 9 -4 23 12 28 21 13 21 -5 0 -15 -7 -22
-17z"/>
<path d="M1940 596 c0 -2 7 -7 16 -10 8 -3 12 -2 9 4 -6 10 -25 14 -25 6z"/>
<path d="M1875 573 l-20 -16 20 8 c11 4 29 9 40 12 20 4 20 4 1 -11 -24 -19
-8 -21 17 -2 16 12 16 14 1 20 -24 9 -37 7 -59 -11z"/>
<path d="M1870 529 c0 -5 5 -7 10 -4 6 3 10 8 10 11 0 2 -4 4 -10 4 -5 0 -10
-5 -10 -11z"/>
<path d="M1800 510 c-13 -9 -13 -10 0 -10 13 0 13 -1 0 -10 -20 -13 -4 -13 21
1 11 5 17 14 14 20 -8 11 -16 11 -35 -1z"/>
<path d="M1615 400 c-22 -11 -34 -19 -27 -20 14 0 72 28 72 35 0 7 0 7 -45
-15z"/>
</g>
</svg>
